# xmcd
#
# Track frame offsets:
#	150
#	18177
#	39164
#	61234
#	80197
#	101269
#	123888
#	140949
#	160214
#	181963
#	197340
#	212471
#
# Disc length: 3060 seconds
#
# Revision: 2
# Processed by: cddbd v1.5.2PL0 Copyright (c) Steve Scherf et al.
# Submitted via: EasyCDDAExtractor 15.3.0.1
#
DISCID=960bf20c
DTITLE=Chayanne - Desde Siempre
DYEAR=2005
DGENRE=Latin
TTITLE0=Contra Vientos Y Mareas
TTITLE1=Un Siglo Sin Ti
TTITLE2=Volver A Nacer
TTITLE3=Cuidarte El Alma
TTITLE4=Fuiste Un Trozo De Hielo En La Escarcha
TTITLE5=Atado A Tu Amor
TTITLE6=El Centro De Mi Corazon
TTITLE7=Pienso En Ti
TTITLE8=Yo Te Amo
TTITLE9=Solamente Tu Amor
TTITLE10=Daria Cualquier Cosa
TTITLE11=Entre Mis Recuerdos
EXTD=
EXTT0=
EXTT1=
EXTT2=
EXTT3=
EXTT4=
EXTT5=
EXTT6=
EXTT7=
EXTT8=
EXTT9=
EXTT10=
EXTT11=
PLAYORDER=
